<svg width="20" height="20" viewBox="0 0 20 20" fill="none" xmlns="http://www.w3.org/2000/svg">
<path d="M2.1875 10C2.02174 10 1.86277 9.93415 1.74556 9.81694C1.62835 9.69973 1.5625 9.54076 1.5625 9.375C1.5625 9.20924 1.62835 9.05027 1.74556 8.93306C1.86277 8.81585 2.02174 8.75 2.1875 8.75H4.375C4.54076 8.75 4.69973 8.68415 4.81694 8.56694C4.93415 8.44973 5 8.29076 5 8.125C5 7.95924 4.93415 7.80027 4.81694 7.68306C4.69973 7.56585 4.54076 7.5 4.375 7.5H3.125C2.62772 7.5 2.15081 7.30246 1.79917 6.95083C1.44754 6.59919 1.25 6.12228 1.25 5.625C1.25 5.12772 1.44754 4.65081 1.79917 4.29917C2.15081 3.94754 2.62772 3.75 3.125 3.75C3.125 3.58424 3.19085 3.42527 3.30806 3.30806C3.42527 3.19085 3.58424 3.125 3.75 3.125C3.91576 3.125 4.07473 3.19085 4.19194 3.30806C4.30915 3.42527 4.375 3.58424 4.375 3.75H5C5.16576 3.75 5.32473 3.81585 5.44194 3.93306C5.55915 4.05027 5.625 4.20924 5.625 4.375C5.625 4.54076 5.55915 4.69973 5.44194 4.81694C5.32473 4.93415 5.16576 5 5 5H3.125C2.95924 5 2.80027 5.06585 2.68306 5.18306C2.56585 5.30027 2.5 5.45924 2.5 5.625C2.5 5.79076 2.56585 5.94973 2.68306 6.06694C2.80027 6.18415 2.95924 6.25 3.125 6.25H4.375C4.87228 6.25 5.34919 6.44754 5.70083 6.79917C6.05246 7.15081 6.25 7.62772 6.25 8.125C6.25 8.62228 6.05246 9.09919 5.70083 9.45083C5.34919 9.80246 4.87228 10 4.375 10C4.375 10.1658 4.30915 10.3247 4.19194 10.4419C4.07473 10.5592 3.91576 10.625 3.75 10.625C3.58424 10.625 3.42527 10.5592 3.30806 10.4419C3.19085 10.3247 3.125 10.1658 3.125 10H2.1875ZM18.125 4.375V15C18.125 15.3315 17.9933 15.6495 17.7589 15.8839C17.5245 16.1183 17.2065 16.25 16.875 16.25H3.125C2.79348 16.25 2.47554 16.1183 2.24112 15.8839C2.0067 15.6495 1.875 15.3315 1.875 15V11.875C1.875 11.7092 1.94085 11.5503 2.05806 11.4331C2.17527 11.3158 2.33424 11.25 2.5 11.25C2.66576 11.25 2.82473 11.3158 2.94194 11.4331C3.05915 11.5503 3.125 11.7092 3.125 11.875V15H12.5V12.5H6.25C6.08424 12.5 5.92527 12.4342 5.80806 12.3169C5.69085 12.1997 5.625 12.0408 5.625 11.875C5.625 11.7092 5.69085 11.5503 5.80806 11.4331C5.92527 11.3158 6.08424 11.25 6.25 11.25H12.5V8.75H8.125C7.95924 8.75 7.80027 8.68415 7.68306 8.56694C7.56585 8.44973 7.5 8.29076 7.5 8.125C7.5 7.95924 7.56585 7.80027 7.68306 7.68306C7.80027 7.56585 7.95924 7.5 8.125 7.5H16.875V5H7.5C7.33424 5 7.17527 4.93415 7.05806 4.81694C6.94085 4.69973 6.875 4.54076 6.875 4.375C6.875 4.20924 6.94085 4.05027 7.05806 3.93306C7.17527 3.81585 7.33424 3.75 7.5 3.75H17.5C17.6658 3.75 17.8247 3.81585 17.9419 3.93306C18.0592 4.05027 18.125 4.20924 18.125 4.375ZM13.75 11.25H16.875V8.75H13.75V11.25ZM16.875 15V12.5H13.75V15H16.875Z" fill="black"/>
</svg>
