<svg width="30" height="30" viewBox="0 0 30 30" fill="none" xmlns="http://www.w3.org/2000/svg">
<path fill-rule="evenodd" clip-rule="evenodd" d="M27 15C27 21.6274 21.6274 27 15 27C8.37258 27 3 21.6274 3 15C3 8.37258 8.37258 3 15 3C21.6274 3 27 8.37258 27 15ZM30 15C30 23.2843 23.2843 30 15 30C6.71573 30 0 23.2843 0 15C0 6.71573 6.71573 0 15 0C23.2843 0 30 6.71573 30 15ZM15 25C15.8885 25 16.7499 24.8841 17.57 24.6667H12.43C13.2501 24.8841 14.1115 25 15 25ZM10.6358 24H19.3642C19.7687 23.8035 20.1579 23.5805 20.5297 23.3333H9.47029C9.84205 23.5805 10.2313 23.8035 10.6358 24ZM8.57914 22.6667H21.4209C21.6718 22.4562 21.9123 22.2337 22.1415 22H7.85854C8.08766 22.2337 8.32816 22.4562 8.57914 22.6667ZM16.6667 7.33333H8.5792C7.88644 7.91413 7.27356 8.58708 6.75942 9.33333H16.6667V7.33333ZM21.9902 7.84895C21.3002 7.1744 20.513 6.59889 19.6515 6.14541C19.071 6.406 18.6667 6.98912 18.6667 7.66667C18.6667 8.58714 19.4129 9.33333 20.3334 9.33333C21.1922 9.33333 21.8994 8.68367 21.9902 7.84895ZM21 7.66667C21 8.03486 20.7015 8.33333 20.3334 8.33333C19.9652 8.33333 19.6667 8.03486 19.6667 7.66667C19.6667 7.29848 19.9652 7 20.3334 7C20.7015 7 21 7.29848 21 7.66667ZM6.66675 9.99998H14.6667V10.6667H6.66675V9.99998ZM10.2146 12.6667H6.66675V13.3334H9.69613L10.2146 12.6667ZM8 19.3333L12.114 14.0439L12.1203 14.0486L12.1271 14.0537L12.1339 14.0587L12.1407 14.0638L12.1474 14.0689L12.1542 14.074L12.161 14.0791L12.1678 14.0842L12.1746 14.0893L12.1815 14.0944L12.1883 14.0995L12.1951 14.1047L12.202 14.1098L12.2088 14.1149L12.2156 14.1201L12.2225 14.1252L12.2293 14.1303L12.2362 14.1355L12.2431 14.1406L12.25 14.1458L12.2568 14.151L12.2637 14.1561L12.2706 14.1613L12.2775 14.1665L12.2844 14.1716L12.2913 14.1768L12.2982 14.182L12.3051 14.1872L12.312 14.1924L12.319 14.1975L12.3259 14.2027L12.3328 14.2079L12.3397 14.2131L12.3467 14.2183L12.3536 14.2235L12.3606 14.2287L12.3675 14.234L12.3744 14.2392L12.3814 14.2444L12.3884 14.2496L12.3953 14.2548L12.4023 14.26L12.4092 14.2653L12.4162 14.2705L12.4232 14.2757L12.4302 14.2809L12.4371 14.2862L12.4441 14.2914L12.4511 14.2966L12.4581 14.3019L12.4651 14.3071L12.472 14.3124L12.479 14.3176L12.486 14.3228L12.493 14.3281L12.5 14.3333L12.507 14.3386L12.514 14.3438L12.521 14.3491L12.528 14.3543L12.535 14.3596L12.542 14.3648L12.549 14.3701L12.556 14.3753L12.563 14.3806L12.57 14.3858L12.577 14.3911L12.584 14.3963L12.591 14.4016L12.598 14.4069L12.605 14.4121L12.612 14.4174L12.6191 14.4226L12.6261 14.4279L12.6331 14.4331L12.6401 14.4384L12.6471 14.4436L12.6541 14.4489L12.6611 14.4541L12.6681 14.4594L12.6751 14.4646L12.6821 14.4699L12.6891 14.4751L12.6961 14.4804L12.7031 14.4856L12.7101 14.4909L12.7171 14.4961L12.7241 14.5014L12.7311 14.5066L12.7381 14.5119L12.745 14.5171L12.752 14.5223L12.759 14.5276L12.766 14.5328L12.773 14.5381L12.7799 14.5433L12.7869 14.5485L12.7939 14.5538L12.8009 14.559L12.8078 14.5642L12.8148 14.5694L12.8218 14.5746L12.8287 14.5799L12.8357 14.5851L12.8426 14.5903L12.8496 14.5955L12.8565 14.6007L12.8635 14.6059L12.8704 14.6111L12.8773 14.6163L12.8843 14.6215L12.8912 14.6267L12.8981 14.6319L12.905 14.6371L12.9119 14.6423L12.9189 14.6475L12.9258 14.6526L12.9327 14.6578L12.9396 14.663L12.9464 14.6682L12.9533 14.6733L12.9602 14.6785L12.9671 14.6836L12.974 14.6888L12.9808 14.6939L12.9877 14.6991L12.9945 14.7042L13.0014 14.7094L13.0082 14.7145L13.0151 14.7196L13.0219 14.7248L13.0287 14.7299L13.0356 14.735L13.0424 14.7401L13.0492 14.7452L13.056 14.7503L13.0628 14.7554L13.0696 14.7605L13.0764 14.7656L13.0831 14.7707L13.0899 14.7758L13.0967 14.7808L13.1034 14.7859L13.1102 14.791L13.1169 14.796L13.1236 14.8011L13.1304 14.8061L13.1371 14.8111L13.1438 14.8162L13.1505 14.8212L13.1572 14.8262L13.1639 14.8313L13.1706 14.8363L13.1772 14.8413L13.1839 14.8463L13.1906 14.8513L13.1972 14.8562L13.2039 14.8612L13.2105 14.8662L13.2171 14.8712L13.2237 14.8761L13.2303 14.8811L13.2369 14.886L13.2435 14.891L13.2501 14.8959L13.2567 14.9008L13.2632 14.9057L13.2698 14.9107L13.2763 14.9156L13.2828 14.9205L13.2894 14.9253L13.2959 14.9302L13.3024 14.9351L13.3089 14.94L13.3153 14.9448L13.3218 14.9497L13.3283 14.9545L13.3347 14.9594L13.3412 14.9642L13.3476 14.969L13.354 14.9738L13.3604 14.9786L13.3668 14.9834L13.3732 14.9882L13.3796 14.993L13.3859 14.9978L13.3923 15.0025L13.3986 15.0073L13.4049 15.012L13.4113 15.0168L13.4176 15.0215L13.4239 15.0262L13.4301 15.0309L13.4364 15.0356L13.4427 15.0403L13.4489 15.045L13.4551 15.0497L13.4614 15.0543L13.4676 15.059L13.4738 15.0637L13.4799 15.0683L13.4861 15.0729L13.4923 15.0775L13.4984 15.0821L13.5045 15.0867L13.5107 15.0913L13.5168 15.0959L13.5229 15.1005L13.5289 15.105L13.535 15.1096L13.541 15.1141L13.5471 15.1186L13.5531 15.1232L13.5591 15.1277L13.5651 15.1322L13.5711 15.1366L13.5771 15.1411L13.583 15.1456L13.5889 15.15L13.5949 15.1545L13.6008 15.1589L13.6067 15.1633L13.6125 15.1677L13.6184 15.1721L13.6242 15.1765L13.6301 15.1809L13.6359 15.1853L13.6417 15.1896L13.6475 15.1939L13.6533 15.1983L13.659 15.2026L13.6648 15.2069L13.6705 15.2112L13.6762 15.2155L13.6819 15.2197L13.6875 15.224L13.6932 15.2282L13.6988 15.2325L13.7045 15.2367L13.7101 15.2409L13.7157 15.2451L13.7213 15.2493L13.7268 15.2534L13.7324 15.2576L13.7379 15.2617L13.7434 15.2659L13.7489 15.27L13.7544 15.2741L13.7598 15.2782L13.7652 15.2823L13.7707 15.2863L13.7761 15.2904L13.7815 15.2944L13.7868 15.2984L13.7922 15.3025L13.7975 15.3065L13.8028 15.3104L13.8081 15.3144L13.8134 15.3184L13.8186 15.3223L13.8239 15.3262L13.8291 15.3302L13.8343 15.3341L13.8395 15.3379L13.8447 15.3418L13.8498 15.3457L13.8549 15.3495L13.86 15.3533L13.8651 15.3572L13.8702 15.361L13.8752 15.3647L13.8803 15.3685L13.8853 15.3723L13.8902 15.376L13.8952 15.3797L13.9002 15.3835L13.9051 15.3871L13.91 15.3908L13.9149 15.3945L13.9198 15.3981L13.9246 15.4018L13.9294 15.4054L13.9342 15.409L13.939 15.4126L13.9438 15.4162L13.9485 15.4197L13.9532 15.4233L13.9579 15.4268L13.9626 15.4303L13.9673 15.4338L13.9719 15.4373L13.9765 15.4407L13.9811 15.4442L13.9857 15.4476L13.9902 15.451L13.9947 15.4544L13.9992 15.4578L14.0037 15.4611L14.0082 15.4645L14.0126 15.4678L14.017 15.4711L14.0214 15.4744L14.0258 15.4777L14.0301 15.4809L14.0345 15.4842L14.0387 15.4874L14.043 15.4906L14.0473 15.4938L14.0515 15.497L14.0557 15.5001L14.0599 15.5032L14.064 15.5064L14.0682 15.5095L14.0723 15.5125L14.0764 15.5156L14.0804 15.5187L14.0845 15.5217L14.0885 15.5247L14.0925 15.5277L14.0964 15.5307L14.1004 15.5336L14.1043 15.5366L14.1082 15.5395L14.1121 15.5424L14.1159 15.5453L14.1197 15.5481L14.1235 15.551L14.1273 15.5538L14.131 15.5566L14.1347 15.5594L14.1384 15.5621L14.1421 15.5649L14.1457 15.5676L14.1493 15.5703L14.1529 15.573L14.1565 15.5757L14.16 15.5783L14.1635 15.581L14.167 15.5836L14.1705 15.5862L14.1739 15.5887L14.1773 15.5913L14.1807 15.5938L14.184 15.5963L14.1873 15.5988L14.1906 15.6013L14.1939 15.6037L14.1971 15.6062L14.2003 15.6086L14.2035 15.611L14.2067 15.6133L14.2098 15.6157L14.2129 15.618L14.216 15.6203L14.219 15.6226L14.2221 15.6249L14.225 15.6271L14.228 15.6293L14.2309 15.6315L14.2338 15.6337L14.2367 15.6359L14.2396 15.638L14.2424 15.6401L14.2452 15.6422L14.2479 15.6443L14.2507 15.6463L14.2534 15.6484L14.2561 15.6504L14.2587 15.6524L14.2613 15.6543L14.2639 15.6563L14.2665 15.6582L14.269 15.6601L14.2715 15.6619L14.274 15.6638L14.2764 15.6656L14.2788 15.6674L14.2812 15.6692L14.2835 15.671L14.2858 15.6727L14.2881 15.6744L14.2904 15.6761L14.2926 15.6778L14.2948 15.6794L14.297 15.681L14.2991 15.6826L14.3012 15.6842L14.3033 15.6858L14.3053 15.6873L14.3073 15.6888L14.3093 15.6903L14.3112 15.6917L14.3131 15.6932L14.315 15.6946L14.3169 15.696L14.3187 15.6973L14.3205 15.6987L14.3222 15.7L14.3239 15.7013L14.3256 15.7026L14.3273 15.7038L14.3289 15.705L14.3305 15.7062L14.3321 15.7074L14.3336 15.7085L14.3351 15.7096L14.3365 15.7107L14.338 15.7118L14.3394 15.7128L14.3407 15.7139L14.342 15.7149L14.3433 15.7158L14.3446 15.7168L14.3458 15.7177L14.347 15.7186L14.3482 15.7194L14.3493 15.7203L14.3504 15.7211L14.3514 15.7219L14.3524 15.7227L14.3534 15.7234L14.3544 15.7241L14.3553 15.7248L14.3562 15.7255L14.357 15.7261L14.3578 15.7267L14.3586 15.7273L14.3594 15.7278L14.3601 15.7284L14.3607 15.7289L14.3614 15.7294L14.362 15.7298L14.3625 15.7302L14.3631 15.7306L14.3636 15.731L14.364 15.7313L14.3644 15.7317L14.3648 15.7319L14.3652 15.7322L14.3655 15.7324L14.3658 15.7326L14.366 15.7328L14.3662 15.733L14.3664 15.7331L14.3665 15.7332L14.3666 15.7333L14.3666 15.7333L14.6667 15.3333L14.6674 15.3323L19.3333 9.33334L18.5439 8.7194L14.1735 14.3385L14.1711 14.3366L14.1651 14.3322L14.1591 14.3277L14.1531 14.3232L14.1471 14.3186L14.141 14.3141L14.135 14.3096L14.1289 14.305L14.1229 14.3005L14.1168 14.2959L14.1107 14.2913L14.1045 14.2867L14.0984 14.2821L14.0923 14.2775L14.0861 14.2729L14.0799 14.2683L14.0738 14.2637L14.0676 14.259L14.0614 14.2543L14.0551 14.2497L14.0489 14.245L14.0427 14.2403L14.0364 14.2356L14.0301 14.2309L14.0239 14.2262L14.0176 14.2215L14.0113 14.2168L14.0049 14.212L13.9986 14.2073L13.9923 14.2025L13.9859 14.1978L13.9796 14.193L13.9732 14.1882L13.9668 14.1834L13.9604 14.1786L13.954 14.1738L13.9476 14.169L13.9412 14.1642L13.9347 14.1594L13.9283 14.1545L13.9218 14.1497L13.9153 14.1448L13.9089 14.14L13.9024 14.1351L13.8959 14.1302L13.8894 14.1253L13.8828 14.1205L13.8763 14.1156L13.8698 14.1107L13.8632 14.1057L13.8567 14.1008L13.8501 14.0959L13.8435 14.091L13.8369 14.086L13.8303 14.0811L13.8237 14.0761L13.8171 14.0712L13.8105 14.0662L13.8039 14.0612L13.7972 14.0562L13.7906 14.0513L13.7839 14.0463L13.7772 14.0413L13.7706 14.0363L13.7639 14.0313L13.7572 14.0262L13.7505 14.0212L13.7438 14.0162L13.7371 14.0111L13.7304 14.0061L13.7236 14.0011L13.7169 13.996L13.7102 13.991L13.7034 13.9859L13.6967 13.9808L13.6899 13.9758L13.6831 13.9707L13.6764 13.9656L13.6696 13.9605L13.6628 13.9554L13.656 13.9503L13.6492 13.9452L13.6424 13.9401L13.6356 13.935L13.6287 13.9299L13.6219 13.9248L13.6151 13.9196L13.6082 13.9145L13.6014 13.9094L13.5945 13.9042L13.5877 13.8991L13.5808 13.8939L13.574 13.8888L13.5671 13.8836L13.5602 13.8785L13.5533 13.8733L13.5464 13.8682L13.5396 13.863L13.5327 13.8578L13.5258 13.8526L13.5189 13.8475L13.5119 13.8423L13.505 13.8371L13.4981 13.8319L13.4912 13.8267L13.4843 13.8215L13.4773 13.8163L13.4704 13.8111L13.4635 13.8059L13.4565 13.8007L13.4496 13.7955L13.4426 13.7903L13.4357 13.7851L13.4287 13.7799L13.4218 13.7746L13.4148 13.7694L13.4078 13.7642L13.4009 13.759L13.3939 13.7537L13.3869 13.7485L13.3799 13.7433L13.373 13.7381L13.366 13.7328L13.359 13.7276L13.352 13.7223L13.345 13.7171L13.3381 13.7119L13.3311 13.7066L13.3241 13.7014L13.3171 13.6961L13.3101 13.6909L13.3031 13.6856L13.2961 13.6804L13.2891 13.6751L13.2821 13.6699L13.2751 13.6646L13.2681 13.6594L13.2611 13.6541L13.2541 13.6489L13.2471 13.6436L13.2401 13.6384L13.2331 13.6331L13.2261 13.6279L13.2191 13.6226L13.212 13.6174L13.205 13.6121L13.198 13.6069L13.191 13.6016L13.184 13.5963L13.177 13.5911L13.17 13.5858L13.163 13.5806L13.156 13.5753L13.149 13.5701L13.142 13.5648L13.135 13.5596L13.128 13.5543L13.121 13.5491L13.114 13.5438L13.107 13.5386L13.1 13.5333L13.093 13.5281L13.086 13.5228L13.079 13.5176L13.072 13.5124L13.0651 13.5071L13.0581 13.5019L13.0511 13.4966L13.0441 13.4914L13.0371 13.4862L13.0302 13.4809L13.0232 13.4757L13.0162 13.4705L13.0092 13.4653L13.0023 13.46L12.9953 13.4548L12.9884 13.4496L12.9814 13.4444L12.9744 13.4392L12.9675 13.434L12.9606 13.4287L12.9536 13.4235L12.9467 13.4183L12.9397 13.4131L12.9328 13.4079L12.9259 13.4027L12.919 13.3975L12.912 13.3924L12.9051 13.3872L12.8982 13.382L12.8913 13.3768L12.8844 13.3716L12.8775 13.3665L12.8706 13.3613L12.8637 13.3561L12.8568 13.351L12.85 13.3458L12.8431 13.3406L12.8362 13.3355L12.8293 13.3303L12.8225 13.3252L12.8156 13.3201L12.8088 13.3149L12.802 13.3098L12.7951 13.3047L12.7883 13.2995L12.7815 13.2944L12.7746 13.2893L12.7678 13.2842L12.761 13.2791L12.7542 13.274L12.7474 13.2689L12.7407 13.2638L12.7339 13.2587L12.7271 13.2537L12.7203 13.2486L12.7136 13.2435L12.7068 13.2384L12.7001 13.2334L12.6933 13.2283L12.6866 13.2233L12.6799 13.2182L12.6732 13.2132L12.6665 13.2082L12.6598 13.2032L12.6531 13.1981L12.6464 13.1931L12.6397 13.1881L12.6331 13.1831L12.6264 13.1781L12.6197 13.1731L12.6131 13.1682L12.6065 13.1632L12.5998 13.1582L12.5932 13.1532L12.5866 13.1483L12.58 13.1433L12.5734 13.1384L12.5668 13.1335L12.5603 13.1285L12.5537 13.1236L12.5472 13.1187L12.5406 13.1138L12.5341 13.1089L12.5276 13.104L12.521 13.0991L12.5145 13.0942L12.508 13.0894L12.5016 13.0845L12.4951 13.0796L12.4886 13.0748L12.4822 13.07L12.4757 13.0651L12.4693 13.0603L12.4629 13.0555L12.4565 13.0507L12.4501 13.0459L12.4437 13.0411L12.4373 13.0363L12.4309 13.0315L12.4246 13.0268L12.4182 13.022L12.4119 13.0173L12.4056 13.0125L12.3993 13.0078L12.393 13.0031L12.3867 12.9983L12.3804 12.9936L12.3742 12.9889L12.3679 12.9843L12.3617 12.9796L12.3554 12.9749L12.3492 12.9703L12.343 12.9656L12.3368 12.961L12.3307 12.9563L12.3245 12.9517L12.3184 12.9471L12.3122 12.9425L12.3061 12.9379L12.3 12.9333L12.2456 13.0058L11.8773 12.7194L7.21065 18.7194L8 19.3333ZM6.66675 11.3333H12.6667V12H12.1666L12.1626 11.997L12.1557 11.9919L12.1489 11.9867L12.142 11.9816L12.1352 11.9765L12.1284 11.9713L12.1215 11.9662L12.1147 11.9611L12.1079 11.956L12.1011 11.9509L12.0943 11.9458L12.0875 11.9407L12.0807 11.9356L12.0739 11.9305L12.0671 11.9254L12.0604 11.9203L12.0536 11.9153L12.0468 11.9102L12.0401 11.9051L12.0333 11.9001L12.0266 11.895L12.0199 11.89L12.0131 11.8849L12.0064 11.8799L11.9997 11.8749L11.993 11.8698L11.9863 11.8648L11.9796 11.8598L11.973 11.8548L11.9663 11.8498L11.9596 11.8448L11.953 11.8398L11.9464 11.8348L11.9397 11.8299L11.9331 11.8249L11.9265 11.8199L11.9199 11.815L11.9133 11.81L11.9067 11.8051L11.9001 11.8001L11.8935 11.7952L11.887 11.7903L11.8804 11.7854L11.8739 11.7805L11.8673 11.7756L11.8608 11.7707L11.8543 11.7658L11.8478 11.7609L11.8413 11.756L11.8348 11.7512L11.8283 11.7463L11.8219 11.7415L11.8154 11.7366L11.809 11.7318L11.8026 11.727L11.7961 11.7222L11.7897 11.7174L11.7833 11.7126L11.7769 11.7078L11.7706 11.703L11.7642 11.6982L11.7578 11.6934L11.7515 11.6887L11.7452 11.6839L11.7388 11.6792L11.7325 11.6745L11.7262 11.6697L11.7199 11.665L11.7137 11.6603L11.7074 11.6556L11.7012 11.6509L11.6949 11.6463L11.6887 11.6416L11.6825 11.6369L11.6763 11.6323L11.6701 11.6276L11.6639 11.623L11.6578 11.6184L11.6516 11.6138L11.6455 11.6092L11.6394 11.6046L11.6333 11.6L11.3333 12H6.66675V11.3333ZM7.33337 20H8.66671V21.3333H7.33337V20ZM10.6667 18.6667H9.33337V21.3334H10.6667V18.6667ZM11.3333 17.3333H12.6666V21.3333H11.3333V17.3333ZM14.6667 16H13.3334V21.3333H14.6667V16ZM15.3334 14.6667H16.6667V21.3333H15.3334V14.6667ZM18.6666 13.3333H17.3333V21.3333H18.6666V13.3333ZM19.3334 12H20.6667V21.3333H19.3334V12ZM22.6667 10.6667H21.3334V21.3333H22.6667V10.6667Z" fill="black"/>
</svg>
