<svg width="20" height="20" viewBox="0 0 20 20" fill="none" xmlns="http://www.w3.org/2000/svg">
<path d="M4.16671 15.8334H5.08171L13.9967 6.91839L13.0817 6.00339L4.16671 14.9184V15.8334ZM3.33337 16.6667V14.5667L14.3167 3.57339C14.4028 3.49728 14.4973 3.43839 14.6 3.39672C14.7028 3.35505 14.8103 3.33394 14.9225 3.33339C15.0348 3.33283 15.1431 3.35061 15.2475 3.38672C15.3531 3.42172 15.4503 3.48505 15.5392 3.57672L16.4284 4.47172C16.52 4.56005 16.5828 4.65728 16.6167 4.76339C16.65 4.86894 16.6667 4.9745 16.6667 5.08005C16.6667 5.19339 16.6478 5.30172 16.61 5.40505C16.5717 5.50783 16.5112 5.602 16.4284 5.68755L5.43254 16.6667H3.33337ZM13.5317 6.46839L13.0817 6.00339L13.9967 6.91839L13.5317 6.46839Z" fill="black"/>
</svg>
