<svg width="18" height="18" viewBox="0 0 18 18" fill="none" xmlns="http://www.w3.org/2000/svg">
<path d="M12 12C12 11.1712 9.6495 10.5 6.75 10.5M12 12C12 12.8288 9.6495 13.5 6.75 13.5C3.8505 13.5 1.5 12.8288 1.5 12M12 12V15.7028C12 16.557 9.6495 17.25 6.75 17.25C3.8505 17.25 1.5 16.5578 1.5 15.7028V12M12 12C14.868 12 17.25 11.2598 17.25 10.5V3M6.75 10.5C3.8505 10.5 1.5 11.1712 1.5 12M6.75 10.5C3.4365 10.5 0.75 9.75975 0.75 9V5.25M6.75 3.75C3.4365 3.75 0.75 4.42125 0.75 5.25M0.75 5.25C0.75 6.07875 3.4365 6.75 6.75 6.75C6.75 7.50975 9.18975 8.25 12.0577 8.25C14.9257 8.25 17.25 7.50975 17.25 6.75M17.25 3C17.25 2.17125 14.925 1.5 12.0577 1.5C9.1905 1.5 6.8655 2.17125 6.8655 3M17.25 3C17.25 3.82875 14.925 4.5 12.0577 4.5C9.1905 4.5 6.8655 3.82875 6.8655 3M6.8655 3V10.6245" stroke="black"/>
</svg>
