<svg width="18" height="18" viewBox="0 0 18 18" fill="none" xmlns="http://www.w3.org/2000/svg">
<path d="M9.4375 1C10.2168 1 10.9639 1.09961 11.6787 1.29883C12.3936 1.49805 13.0674 1.7793 13.7002 2.14258C14.333 2.50586 14.9014 2.94531 15.4053 3.46094C15.9092 3.97656 16.3486 4.54785 16.7236 5.1748C17.0986 5.80176 17.3828 6.47266 17.5762 7.1875C17.7695 7.90234 17.8691 8.65234 17.875 9.4375C17.875 10.2168 17.7754 10.9639 17.5762 11.6787C17.377 12.3936 17.0957 13.0674 16.7324 13.7002C16.3691 14.333 15.9297 14.9014 15.4141 15.4053C14.8984 15.9092 14.3271 16.3486 13.7002 16.7236C13.0732 17.0986 12.4023 17.3828 11.6875 17.5762C10.9727 17.7695 10.2227 17.8691 9.4375 17.875C8.6582 17.875 7.91113 17.7754 7.19629 17.5762C6.48145 17.377 5.80762 17.0957 5.1748 16.7324C4.54199 16.3691 3.97363 15.9297 3.46973 15.4141C2.96582 14.8984 2.52637 14.3271 2.15137 13.7002C1.77637 13.0732 1.49219 12.4023 1.29883 11.6875C1.10547 10.9727 1.00586 10.2227 1 9.4375C1 8.6582 1.09961 7.91113 1.29883 7.19629C1.49805 6.48145 1.7793 5.80762 2.14258 5.1748C2.50586 4.54199 2.94531 3.97363 3.46094 3.46973C3.97656 2.96582 4.54785 2.52637 5.1748 2.15137C5.80176 1.77637 6.47266 1.49219 7.1875 1.29883C7.90234 1.10547 8.65234 1.00586 9.4375 1ZM9.4375 16.75C10.1113 16.75 10.7588 16.6621 11.3799 16.4863C12.001 16.3105 12.5811 16.0645 13.1201 15.748C13.6592 15.4316 14.1543 15.0508 14.6055 14.6055C15.0566 14.1602 15.4375 13.668 15.748 13.1289C16.0586 12.5898 16.3047 12.0068 16.4863 11.3799C16.668 10.7529 16.7559 10.1055 16.75 9.4375C16.75 8.76367 16.6621 8.11621 16.4863 7.49512C16.3105 6.87402 16.0645 6.29395 15.748 5.75488C15.4316 5.21582 15.0508 4.7207 14.6055 4.26953C14.1602 3.81836 13.668 3.4375 13.1289 3.12695C12.5898 2.81641 12.0068 2.57031 11.3799 2.38867C10.7529 2.20703 10.1055 2.11914 9.4375 2.125C8.76367 2.125 8.11621 2.21289 7.49512 2.38867C6.87402 2.56445 6.29395 2.81055 5.75488 3.12695C5.21582 3.44336 4.7207 3.82422 4.26953 4.26953C3.81836 4.71484 3.4375 5.20703 3.12695 5.74609C2.81641 6.28516 2.57031 6.86816 2.38867 7.49512C2.20703 8.12207 2.11914 8.76953 2.125 9.4375C2.125 10.1113 2.21289 10.7588 2.38867 11.3799C2.56445 12.001 2.81055 12.5811 3.12695 13.1201C3.44336 13.6592 3.82422 14.1543 4.26953 14.6055C4.71484 15.0566 5.20703 15.4375 5.74609 15.748C6.28516 16.0586 6.86816 16.3047 7.49512 16.4863C8.12207 16.668 8.76953 16.7559 9.4375 16.75ZM10 8.875H14.5V10H10V14.5H8.875V10H4.375V8.875H8.875V4.375H10V8.875Z" fill="white"/>
</svg>
