<svg width="20" height="20" viewBox="0 0 20 20" fill="none" xmlns="http://www.w3.org/2000/svg">
<path d="M6.34663 16.6667C5.97329 16.6667 5.65552 16.5356 5.39329 16.2734C5.13107 16.0111 4.99996 15.6936 4.99996 15.3209V5.00002H4.16663V4.16669H7.49996V3.52502H12.5V4.16669H15.8333V5.00002H15V15.3209C15 15.7042 14.8716 16.0245 14.615 16.2817C14.3583 16.5389 14.0377 16.6672 13.6533 16.6667H6.34663ZM14.1666 5.00002H5.83329V15.3209C5.83329 15.4703 5.88135 15.5931 5.97746 15.6892C6.07357 15.7853 6.19663 15.8334 6.34663 15.8334H13.6541C13.7819 15.8334 13.8994 15.78 14.0066 15.6734C14.1138 15.5667 14.1672 15.4489 14.1666 15.32V5.00002ZM8.17329 14.1667H9.00663V6.66669H8.17329V14.1667ZM10.9933 14.1667H11.8266V6.66669H10.9933V14.1667Z" fill="black"/>
</svg>
