<svg width="18" height="18" viewBox="0 0 18 18" fill="none" xmlns="http://www.w3.org/2000/svg">
<g clip-path="url(#clip0_3_175)">
<path fill-rule="evenodd" clip-rule="evenodd" d="M3.75001 6.75C3.75001 5.35761 4.30313 4.02226 5.2877 3.03769C6.27226 2.05312 7.60762 1.5 9.00001 1.5C10.3924 1.5 11.7278 2.05312 12.7123 3.03769C13.6969 4.02226 14.25 5.35761 14.25 6.75V9.573L15.6165 12.306C15.6794 12.4318 15.7091 12.5716 15.7028 12.7121C15.6965 12.8526 15.6543 12.9891 15.5804 13.1088C15.5065 13.2284 15.4032 13.3271 15.2803 13.3956C15.1575 13.4641 15.0192 13.5 14.8785 13.5H11.9055C11.7387 14.1437 11.3628 14.7137 10.837 15.1207C10.3111 15.5276 9.66496 15.7485 9.00001 15.7485C8.33506 15.7485 7.68894 15.5276 7.16306 15.1207C6.63719 14.7137 6.26134 14.1437 6.09451 13.5H3.12151C2.98087 13.5 2.84255 13.4641 2.71971 13.3956C2.59686 13.3271 2.49356 13.2284 2.41962 13.1088C2.34567 12.9891 2.30354 12.8526 2.29722 12.7121C2.2909 12.5716 2.3206 12.4318 2.38351 12.306L3.75001 9.573V6.75ZM7.70101 13.5C7.83267 13.728 8.02202 13.9174 8.25004 14.049C8.47806 14.1806 8.73672 14.2499 9.00001 14.2499C9.2633 14.2499 9.52196 14.1806 9.74998 14.049C9.978 13.9174 10.1674 13.728 10.299 13.5H7.70101ZM9.00001 3C8.00545 3 7.05162 3.39509 6.34836 4.09835C5.6451 4.80161 5.25001 5.75544 5.25001 6.75V9.573C5.24999 9.80575 5.19581 10.0353 5.09176 10.2435L4.21426 12H13.7865L12.909 10.2435C12.8047 10.0354 12.7503 9.80581 12.75 9.573V6.75C12.75 5.75544 12.3549 4.80161 11.6517 4.09835C10.9484 3.39509 9.99457 3 9.00001 3Z" fill="white"/>
</g>
<defs>
<clipPath id="clip0_3_175">
<rect width="18" height="18" fill="white"/>
</clipPath>
</defs>
</svg>
